<?xml version="1.0" encoding="UTF-8"?>
<svg xmlns="http://www.w3.org/2000/svg" xmlns:xlink="http://www.w3.org/1999/xlink" width="20px" height="20px" viewBox="0 0 20 20" version="1.1">
<g id="surface1">
<path style=" stroke:none;fill-rule:nonzero;fill:rgb(0%,0%,0%);fill-opacity:1;" d="M 12.375 10 L 19.800781 2.570312 C 20.066406 2.308594 20.066406 1.882812 19.800781 1.617188 L 18.382812 0.199219 C 18.257812 0.0703125 18.085938 0 17.90625 0 C 17.726562 0 17.554688 0.0703125 17.429688 0.199219 L 10 7.625 L 2.570312 0.199219 C 2.445312 0.0703125 2.273438 0 2.09375 0 C 1.914062 0 1.742188 0.0703125 1.617188 0.199219 L 0.199219 1.617188 C -0.0664062 1.882812 -0.0664062 2.308594 0.199219 2.570312 L 7.625 10 L 0.199219 17.429688 C -0.0664062 17.691406 -0.0664062 18.117188 0.199219 18.382812 L 1.617188 19.800781 C 1.746094 19.929688 1.914062 20 2.09375 20 C 2.273438 20 2.445312 19.929688 2.570312 19.800781 L 10 12.375 L 17.429688 19.800781 C 17.554688 19.929688 17.726562 20 17.90625 20 C 18.085938 20 18.253906 19.929688 18.382812 19.800781 L 19.800781 18.382812 C 20.066406 18.117188 20.066406 17.691406 19.800781 17.429688 Z M 12.375 10 "/>
</g>
</svg>
